<svg xmlns="http://www.w3.org/2000/svg" viewBox="0 176 612 616"><path fill="#ED010C" d="M306 185.2H7.7v298.3c0 164.5 133.9 298.4 298.4 298.4S604.4 648 604.4 483.5 470.5 185.2 306 185.2z"/><path fill="#FFF" d="M445.6 435.7c-19.1-19.1-44-28.7-70.8-28.7-26.8 0-49.7 9.6-70.8 28.7l-5.7 5.7c7.6-11.5 13.4-26.8 13.4-34.4h-95.6c-5.7 0-13.4 1.9-17.2 7.6l-5.7 11.5c1.9-17.2 7.6-32.5 19.1-45.9 17.2-13.4 34.4-21 55.5-21H308c21 0 42.1-28.7 42.1-51.6h-89.9c-34.4 0-63.1 11.5-86.1 36.3-24.9 23-36.3 51.6-36.3 86.1v126.2c13.4 0 32.5-5.7 42.1-15.3s15.3-23 15.3-36.3v-65c0 3.8 1.9 9.6 5.7 11.5 5.7 5.7 15.3 9.6 21 9.6h51.6c5.7 0 13.4-3.8 17.2-9.6-11.5 17.2-17.2 36.3-17.2 57.4v151c9.6 0 30.6-3.8 40.2-13.4 9.6-9.6 13.4-19.1 13.4-30.6v-7.6h47.8c26.8 0 49.7-9.6 70.8-28.7 19.1-19.1 28.7-44 28.7-74.6 1.8-26.8-7.7-49.8-28.8-68.9zm-34.4 107.1c-9.6 9.6-21 15.3-34.4 15.3H329v-49.7c0-13.4 5.7-24.9 13.4-36.3 9.6-9.6 21-15.3 34.4-15.3s24.9 5.7 34.4 13.4c9.6 9.6 13.4 21 13.4 36.3 0 15.3-3.8 26.7-13.4 36.3z"/></svg>